<svg xmlns="http://www.w3.org/2000/svg" width="95.031" height="94.394" viewBox="0 0 95.031 94.394">
    <g id="Layer_2" data-name="Layer 2" opacity="0.2">
        <g id="Layer_1" data-name="Layer 1" transform="translate(0 0)">
            <path id="Caminho_58" data-name="Caminho 58" d="M56.143,2.534h0a15.948,15.948,0,0,0,8.622,2.533h0A15.944,15.944,0,0,1,79.271,14.39v0a15.954,15.954,0,0,0,5.886,6.791h0a15.95,15.95,0,0,1,7.163,15.685h0a15.933,15.933,0,0,0,1.275,8.894h0a15.952,15.952,0,0,1-2.454,17.07h0A15.95,15.95,0,0,0,87.406,71h0A15.95,15.95,0,0,1,76.115,84.034h0a15.952,15.952,0,0,0-7.56,4.857h0a15.952,15.952,0,0,1-16.547,4.859h0a15.941,15.941,0,0,0-8.985,0h0a15.95,15.95,0,0,1-16.545-4.859h0a15.952,15.952,0,0,0-7.56-4.857h0A15.95,15.95,0,0,1,7.626,71h0a15.931,15.931,0,0,0-3.733-8.173h0a15.946,15.946,0,0,1-2.444-17.07h0a15.97,15.97,0,0,0,1.279-8.894h0A15.95,15.95,0,0,1,9.887,21.179h0a15.948,15.948,0,0,0,5.884-6.791h0A15.944,15.944,0,0,1,30.276,5.066h0A15.952,15.952,0,0,0,38.9,2.535h0a15.954,15.954,0,0,1,17.243,0Z" transform="translate(-0.003 -0.003)" fill="#fff" />
        </g>
    </g>
</svg>  