<svg xmlns="http://www.w3.org/2000/svg" width="239.899" height="238.358" viewBox="0 0 239.899 238.358">
    <path id="Caminho_58" data-name="Caminho 58" d="M135.2,6.1h0a38.406,38.406,0,0,0,20.763,6.1h0A38.4,38.4,0,0,1,190.9,34.651l0,0A38.421,38.421,0,0,0,205.072,51h0a38.411,38.411,0,0,1,17.25,37.774h0a38.371,38.371,0,0,0,3.07,21.419h0a38.416,38.416,0,0,1-5.911,41.108h0a38.41,38.41,0,0,0-8.991,19.683h0A38.411,38.411,0,0,1,183.3,202.37h0a38.416,38.416,0,0,0-18.205,11.7h0a38.416,38.416,0,0,1-39.849,11.7h0a38.391,38.391,0,0,0-21.638,0h0a38.411,38.411,0,0,1-39.844-11.7h0a38.415,38.415,0,0,0-18.205-11.7h0a38.411,38.411,0,0,1-27.2-31.385h0A38.366,38.366,0,0,0,9.371,151.3h0a38.4,38.4,0,0,1-5.886-41.107h0a38.461,38.461,0,0,0,3.08-21.419h0A38.411,38.411,0,0,1,23.8,51h0a38.406,38.406,0,0,0,14.17-16.354h0A38.4,38.4,0,0,1,72.908,12.2h0A38.416,38.416,0,0,0,93.671,6.1l0,0a38.421,38.421,0,0,1,41.525,0Z" transform="translate(5.517 5.497)" fill="none" stroke="#fff" stroke-width="11" />
</svg>
