<svg xmlns="http://www.w3.org/2000/svg" viewBox="0 0 647.31 64.59"><defs><style>.cls-1{fill:#ea5a4b;}</style></defs><g id="Layer_2" data-name="Layer 2"><g id="Layer_1-2" data-name="Layer 1"><path class="cls-1" d="M207.15,22.35h23.26l-1.91,7.06H213.34L212,34.35h13.7L223.93,41H210.22l-2.78,10.38h-8.1Z"/><path class="cls-1" d="M244.07,22.14H252l4.53,29.28H248l-.7-5.19H236.1l-3.49,5.19h-8.77ZM246.64,40l-1-8.35L240.17,40Z"/><path class="cls-1" d="M271.65,51.92a20.52,20.52,0,0,1-7.71-1.39,16.16,16.16,0,0,1-5.79-3.93l5.19-5.36q4.28,3.94,9,3.95a4.33,4.33,0,0,0,2.37-.58,1.79,1.79,0,0,0,.91-1.58,1.68,1.68,0,0,0-.18-.77,2.14,2.14,0,0,0-.73-.7,11.16,11.16,0,0,0-1.48-.79c-.62-.29-1.44-.63-2.47-1a30.07,30.07,0,0,1-3.13-1.39,10.48,10.48,0,0,1-2.37-1.66,6.47,6.47,0,0,1-2.06-5,8.65,8.65,0,0,1,.94-4,9.48,9.48,0,0,1,2.57-3.14,12.18,12.18,0,0,1,3.91-2,15.86,15.86,0,0,1,4.92-.73A18.73,18.73,0,0,1,282.34,23a15.72,15.72,0,0,1,5.09,3.16l-5,5.56a14.8,14.8,0,0,0-3.56-2.32,9.74,9.74,0,0,0-4.13-.87,3.9,3.9,0,0,0-2.3.6,1.75,1.75,0,0,0-.85,1.47,1.34,1.34,0,0,0,.2.77,2.39,2.39,0,0,0,.73.64,9.78,9.78,0,0,0,1.47.75c.64.28,1.46.61,2.46,1a24.57,24.57,0,0,1,3,1.37,11.79,11.79,0,0,1,2.39,1.68A6.73,6.73,0,0,1,283.46,39a6.84,6.84,0,0,1,.56,2.87,9.09,9.09,0,0,1-.91,4.09,9.54,9.54,0,0,1-2.55,3.18,12,12,0,0,1-3.93,2A16.16,16.16,0,0,1,271.65,51.92Z"/><path class="cls-1" d="M298.1,29.41h-8.72l1.91-7.06h25.46l-1.87,7.06h-8.72l-5.9,22h-8.1Z"/><path class="cls-1" d="M320.2,22.35h8.06l-7.81,29.07h-8.06Z"/><path class="cls-1" d="M333.49,22.35H341l7.51,16.15,4.37-16.15h8l-7.81,29.07H346l-7.85-16.74L333.7,51.42h-8Z"/><path class="cls-1" d="M374.73,52a17.84,17.84,0,0,1-5.13-.75,13,13,0,0,1-4.5-2.32,11.67,11.67,0,0,1-3.2-4,12.8,12.8,0,0,1-1.21-5.77,16.42,16.42,0,0,1,1.36-6.63A16.93,16.93,0,0,1,365.89,27a18.52,18.52,0,0,1,5.91-3.82,19.76,19.76,0,0,1,7.58-1.42,18.64,18.64,0,0,1,4.05.42,17.27,17.27,0,0,1,3.41,1.1,13.62,13.62,0,0,1,2.68,1.58,10.9,10.9,0,0,1,1.91,1.85L386,31.94a11.21,11.21,0,0,0-3-2.14,9.42,9.42,0,0,0-4.14-.85,9.9,9.9,0,0,0-4,.79,9.62,9.62,0,0,0-3.11,2.15,9.77,9.77,0,0,0-2,3.16,10.24,10.24,0,0,0-.72,3.81,6.55,6.55,0,0,0,.52,2.71,5.31,5.31,0,0,0,1.41,1.93A5.91,5.91,0,0,0,373,44.67a7.91,7.91,0,0,0,2.51.4,9.48,9.48,0,0,0,2.16-.23,10.91,10.91,0,0,0,1.7-.57l1.16-3.94h-5.6l1.53-5.9h13.34l-4.16,14.66a23.08,23.08,0,0,1-4.9,2.08A20.68,20.68,0,0,1,374.73,52Z"/><path class="cls-1" d="M407.17,22.35h6.64L414.56,42l11.71-19.77h5.49L433.09,42l11.29-19.68h7.23L433.83,51.63h-5.94L426.48,33,415.1,51.63h-5.86Z"/><path class="cls-1" d="M456.38,22.35h6.4L455,51.42h-6.39Z"/><path class="cls-1" d="M474.58,28.24h-8.85l1.58-5.89H491.4l-1.58,5.89H481l-6.23,23.18h-6.39Z"/><path class="cls-1" d="M495.8,22.35h6.4l-3.08,11.5h11.63l3.08-11.5h6.39l-7.81,29.07H506l3.15-11.67H497.54l-3.15,11.67H488Z"/><path class="cls-1" d="M542.52,39.71l-7.18-17.36H539L544.81,37l13.7-14.66h4.2l-17,17.9-3,11.17h-3.32Z"/><path class="cls-1" d="M577.37,22.14h3.16l5.39,29.28h-3.36l-1.33-7.68H565.37l-5.49,7.68h-3.61Zm3.32,18.69-2.62-14.91L567.44,40.83Z"/><path class="cls-1" d="M598.59,22.35h10.47c3.63,0,6.35.88,8.18,2.66a7,7,0,0,1,1.91,5,8.76,8.76,0,0,1-.68,3.49,9.48,9.48,0,0,1-1.89,2.83,10.66,10.66,0,0,1-3.47,2.24,18.62,18.62,0,0,1-4.59,1.21l6,11.62h-3.78L605,40.12H597.1l-3,11.3h-3.29Zm7.19,14.87a15.3,15.3,0,0,0,5-.73,8.62,8.62,0,0,0,3.3-1.94,6.55,6.55,0,0,0,1.29-1.92,5.8,5.8,0,0,0,.46-2.33,4.3,4.3,0,0,0-1.21-3.17,5.35,5.35,0,0,0-2.22-1.29,11.09,11.09,0,0,0-3.47-.46h-7.81l-3.19,11.84Z"/><path class="cls-1" d="M638.75,22.14h3.16l5.4,29.28H644l-1.33-7.68H626.75l-5.48,7.68h-3.61Zm3.33,18.69-2.62-14.91L628.83,40.83Z"/><path class="cls-1" d="M70.79,30.72H33.84L40,24.61h0l0,0,6.17-6.18h0l6.1-6.11h0l0,0L58,6.55A22.34,22.34,0,0,1,73.81,0H76.9l0,0,0,0H89.2l.06.06L89.32,0H105l7,6.12-36.47,0a11.53,11.53,0,0,0-8.18,3.4l-8.84,8.86H58.4l.06.07-6.13,6.13H64.59l.07.06.06-.06L77,12.3h39.86L123,18.46l-40-.05-6.11,6.2,6.15,6.15L90,23.82a7.59,7.59,0,0,1,10.73,0l6.93,6.94,6.16-6.15h12.3L120,30.72h-.08l0,0L107.7,43h-.09L95.35,30.76l0,0h-.08l0,0L83.09,43H83L70.74,30.76Z"/><polygon class="cls-1" points="52.27 49.21 52.28 49.22 46.18 55.32 46.17 55.32 46.17 55.33 40.03 61.48 36.91 64.59 24.61 64.59 32.3 56.9 40.11 49.21 52.27 49.21"/><path class="cls-1" d="M169.21,6.11h-.08l0,0L156.91,18.41h-.08l0,.05L144.61,30.72h-.09l0,0L132.3,43h-.08l0,0L120,55.32h-.08l0,0-6.58,6.57a8.08,8.08,0,0,1-11.45,0l-6.58-6.57,0,0h-.08l0,0-6.58,6.57a8.08,8.08,0,0,1-11.45,0l-6.58-6.57.05,0H70.7L58.44,43.06l0,0H33.85l0,0L20,56.9,12.3,64.59H0L15.34,49.21h.11l-.06-.05L21.53,43h0l6.1-6.1H40l0,0,0,0H52.29l.06.06.06-.06H64.63L70.73,43l0,0,6.14,6.16h0L83,55.32l0,0,12.3-12.3,12.3,12.31,30.76-30.76-6.15-6.15,0-.05h-.08L120,6.15l0,0h-.08L113.81,0h12.3l18.45,18.46,4.61-4.62L135.34,0h9.22l3.07,3,0,0,6.14,6.15,3.06-3.07,0,0L163,0h12.34Z"/><path class="cls-1" d="M125.48,64.59h-8.6L181.48,0h12.3l-62,62A8.91,8.91,0,0,1,125.48,64.59Z"/></g></g></svg>