<svg xmlns="http://www.w3.org/2000/svg" viewBox="0 0 804.67 268.22"><defs><style>.cls-1{fill:#fff;}</style></defs><g id="Layer_1" data-name="Layer 2"><g id="Layer_1-2_1" data-name="Layer 1"><path class="cls-1" d="M294,127.55H140.51l25.36-25.37H166l-.08-.08L191.6,76.46h.05l0,0L217,51.09h.17l-.08-.08,23.81-23.82A92.85,92.85,0,0,1,306.51,0h12.8l.09.09.08-.09H370.4l.27.26.25-.26h65.17l29,25.4-151.44.13a48,48,0,0,0-34,14.11L243,76.46h-.53l.26.26L217.3,102.18h50.92l.27.26.25-.26,51.09-51.09H485.36L510.9,76.64l-166.22-.18-25.37,25.72,25.55,25.55,28.81-28.81a31.5,31.5,0,0,1,44.56,0L447,127.73l25.54-25.55h51.1l-25.37,25.37H498l.18.18-50.91,50.91h-.36L396,127.73l.18-.18h-.36l.18.18L345,178.64h-.36l-50.91-50.91Z"/><polygon class="cls-1" points="217.06 204.36 217.1 204.4 191.77 229.73 191.72 229.73 191.75 229.75 166.21 255.28 153.27 268.22 102.18 268.22 134.11 236.29 166.56 204.36 217.06 204.36"/><path class="cls-1" d="M702.67,25.37h-.36l.18.18L651.58,76.46h-.36l.18.18-50.91,50.91h-.36l.18.18L549.4,178.64H549l.18.18-50.91,50.91H498l.18.18-27.31,27.31a33.64,33.64,0,0,1-47.56,0L396,229.91l.18-.18h-.36l.18.18-27.31,27.31a33.64,33.64,0,0,1-47.56,0l-27.31-27.31.18-.18h-.36l-50.91-50.91.18-.18H140.56l.14.14L83,236.29,51.09,268.22H0l63.69-63.86h.45l-.23-.23,25.5-25.49h.06l0,0,25.34-25.34H165.9l.16.16.15-.16h50.92l.27.26.25-.26h50.72l25.33,25.37.12.13,25.53,25.56,0,0h.08l25.33,25.37.15.16L396,178.82,447,229.91,574.77,102.18,549.22,76.64l.18-.18H549L498.13,25.55l.18-.18H498L472.58,0h51.1l76.63,76.64,19.14-19.18L562,0h38.32L613,12.6l.11.12L638.6,38.26l12.74-12.77.12-.12L676.77,0H728Z"/><path class="cls-1" d="M521.07,268.22H485.36L753.58,0h51.09L547.32,257.35A37.12,37.12,0,0,1,521.07,268.22Z"/></g></g></svg>