<svg id="Layer_1" enable-background="new 0 0 511.76 511.76" height="512" viewBox="0 0 511.76 511.76" width="512" xmlns="http://www.w3.org/2000/svg">
    <g>
        <path d="m384.546 0h-258v.034c-31.181.713-56.333 26.282-56.333 57.633v224h85.333v230.093l143-99.801 143 99.801v-454.76c0-31.43-25.57-57-57-57zm-284.333 57.667c0-15.255 12.411-27.667 27.666-27.667 15.256 0 27.667 12.411 27.667 27.667v194h-55.333zm85.333 0c0-10.02-2.573-19.448-7.086-27.667h78.024c14.888 0 27 12.112 27 27v328.887l-97.938 68.352zm199-27.667c14.888 0 27 12.112 27 27v397.239l-98.062-68.439v-328.8c0-9.763-2.47-18.959-6.814-27z" fill="#fff"/>
    </g>
</svg>