<svg xmlns="http://www.w3.org/2000/svg" width="18.277" height="25.201" viewBox="0 0 18.277 25.201">
    <g id="ribbon_1_" data-name="ribbon (1)" transform="translate(-70.334)">
        <path id="Caminho_60" data-name="Caminho 60" d="M294.893,0h-4.647a4.472,4.472,0,0,1,1.15,3V20.79l6.3,4.4V2.806A2.809,2.809,0,0,0,294.893,0Z" transform="translate(-209.088)" fill="#fff" />
        <path id="Caminho_61" data-name="Caminho 61" d="M114.548,0h-5.912a2.843,2.843,0,0,1,2.315,2.789V25.2l6.3-4.407V3a3.018,3.018,0,0,0-2.7-3Z" transform="translate(-36.417)" fill="#fff" />
        <path id="Caminho_62" data-name="Caminho 62" d="M71.7,29a1.363,1.363,0,0,0-1.362,1.358V41.436h2.723V30.362A1.363,1.363,0,0,0,71.7,29Z" transform="translate(0 -27.573)" fill="#fff" />
    </g>
</svg>
